<svg xmlns="http://www.w3.org/2000/svg" xmlns:xlink="http://www.w3.org/1999/xlink" width="1080" zoomAndPan="magnify" viewBox="0 0 810 809.999993" height="1080" preserveAspectRatio="xMidYMid meet" version="1.0"><defs><g/><clipPath id="c64de9e7e7"><path d="M 21.164062 33.652344 L 789 33.652344 L 789 758.09375 L 21.164062 758.09375 Z M 21.164062 33.652344 " clip-rule="nonzero"/></clipPath><clipPath id="8d3a671632"><path d="M 39.914062 33.652344 L 770.085938 33.652344 C 780.441406 33.652344 788.835938 42.046875 788.835938 52.402344 L 788.835938 739.34375 C 788.835938 749.699219 780.441406 758.09375 770.085938 758.09375 L 39.914062 758.09375 C 29.558594 758.09375 21.164062 749.699219 21.164062 739.34375 L 21.164062 52.402344 C 21.164062 42.046875 29.558594 33.652344 39.914062 33.652344 Z M 39.914062 33.652344 " clip-rule="nonzero"/></clipPath><clipPath id="8bf8394599"><path d="M 0.164062 0.652344 L 767.878906 0.652344 L 767.878906 725.09375 L 0.164062 725.09375 Z M 0.164062 0.652344 " clip-rule="nonzero"/></clipPath><clipPath id="d6dd0ae7b4"><path d="M 18.914062 0.652344 L 749.085938 0.652344 C 759.441406 0.652344 767.835938 9.046875 767.835938 19.402344 L 767.835938 706.34375 C 767.835938 716.699219 759.441406 725.09375 749.085938 725.09375 L 18.914062 725.09375 C 8.558594 725.09375 0.164062 716.699219 0.164062 706.34375 L 0.164062 19.402344 C 0.164062 9.046875 8.558594 0.652344 18.914062 0.652344 Z M 18.914062 0.652344 " clip-rule="nonzero"/></clipPath><clipPath id="96a459be4b"><rect x="0" width="768" y="0" height="726"/></clipPath><clipPath id="0bc7943f79"><path d="M 24.582031 35.527344 L 785.082031 35.527344 L 785.082031 757.777344 L 24.582031 757.777344 Z M 24.582031 35.527344 " clip-rule="nonzero"/></clipPath><clipPath id="3a95e1f3fd"><path d="M 24.582031 52.027344 L 24.582031 741.59375 C 24.582031 750.707031 31.96875 758.09375 41.082031 758.09375 L 768.917969 758.09375 C 778.03125 758.09375 785.417969 750.707031 785.417969 741.59375 L 785.417969 52.027344 C 785.417969 42.914062 778.03125 35.527344 768.917969 35.527344 L 41.082031 35.527344 C 31.96875 35.527344 24.582031 42.914062 24.582031 52.027344 Z M 24.582031 52.027344 " clip-rule="nonzero"/></clipPath><clipPath id="56e89f99fd"><rect x="0" width="343" y="0" height="289"/></clipPath><clipPath id="032b225375"><rect x="0" width="323" y="0" height="366"/></clipPath></defs><g clip-path="url(#c64de9e7e7)"><g clip-path="url(#8d3a671632)"><g transform="matrix(1, 0, 0, 1, 21, 33)"><g clip-path="url(#96a459be4b)"><g clip-path="url(#8bf8394599)"><g clip-path="url(#d6dd0ae7b4)"><path fill="#1b4848" d="M 0.164062 0.652344 L 767.054688 0.652344 L 767.054688 725.09375 L 0.164062 725.09375 Z M 0.164062 0.652344 " fill-opacity="1" fill-rule="nonzero"/></g></g></g></g></g></g><g clip-path="url(#0bc7943f79)"><g clip-path="url(#3a95e1f3fd)"><path fill="#296967" d="M 718.695312 -14.832031 L 718.695312 140.246094 C 718.695312 169.714844 694.824219 193.621094 665.320312 193.621094 L 162.363281 193.621094 C 132.898438 193.621094 108.988281 169.75 108.988281 140.246094 L 108.988281 -14.832031 L 24.582031 -14.832031 L 24.582031 882.507812 L 108.988281 882.507812 L 108.988281 730.550781 C 108.988281 701.082031 132.859375 677.175781 162.363281 677.175781 L 665.320312 677.175781 C 694.789062 677.175781 718.695312 701.046875 718.695312 730.550781 L 718.695312 882.507812 L 803.105469 882.507812 L 803.105469 -14.832031 Z M 96.488281 839.121094 C 96.488281 843.664062 92.820312 847.335938 88.277344 847.335938 L 45.472656 847.335938 C 40.929688 847.335938 37.261719 843.664062 37.261719 839.121094 L 37.261719 808.636719 C 37.261719 804.09375 40.929688 800.425781 45.472656 800.425781 L 88.277344 800.425781 C 92.820312 800.425781 96.488281 804.09375 96.488281 808.636719 Z M 96.488281 724.992188 C 96.488281 729.535156 92.820312 733.203125 88.277344 733.203125 L 45.472656 733.203125 C 40.929688 733.203125 37.261719 729.535156 37.261719 724.992188 L 37.261719 694.507812 C 37.261719 689.964844 40.929688 686.296875 45.472656 686.296875 L 88.277344 686.296875 C 92.820312 686.296875 96.488281 689.964844 96.488281 694.507812 Z M 96.488281 621.835938 C 96.488281 626.378906 92.820312 630.046875 88.277344 630.046875 L 45.472656 630.046875 C 40.929688 630.046875 37.261719 626.378906 37.261719 621.835938 L 37.261719 591.351562 C 37.261719 586.808594 40.929688 583.140625 45.472656 583.140625 L 88.277344 583.140625 C 92.820312 583.140625 96.488281 586.808594 96.488281 591.351562 Z M 96.488281 507.707031 C 96.488281 512.25 92.820312 515.917969 88.277344 515.917969 L 45.472656 515.917969 C 40.929688 515.917969 37.261719 512.25 37.261719 507.707031 L 37.261719 477.222656 C 37.261719 472.679688 40.929688 469.007812 45.472656 469.007812 L 88.277344 469.007812 C 92.820312 469.007812 96.488281 472.679688 96.488281 477.222656 Z M 96.488281 393.578125 C 96.488281 398.117188 92.820312 401.789062 88.277344 401.789062 L 45.472656 401.789062 C 40.929688 401.789062 37.261719 398.117188 37.261719 393.578125 L 37.261719 363.089844 C 37.261719 358.550781 40.929688 354.878906 45.472656 354.878906 L 88.277344 354.878906 C 92.820312 354.878906 96.488281 358.550781 96.488281 363.089844 Z M 96.488281 279.449219 C 96.488281 283.988281 92.820312 287.660156 88.277344 287.660156 L 45.472656 287.660156 C 40.929688 287.660156 37.261719 283.988281 37.261719 279.449219 L 37.261719 248.960938 C 37.261719 244.421875 40.929688 240.75 45.472656 240.75 L 88.277344 240.75 C 92.820312 240.75 96.488281 244.421875 96.488281 248.960938 Z M 96.488281 176.289062 C 96.488281 180.832031 92.820312 184.503906 88.277344 184.503906 L 45.472656 184.503906 C 40.929688 184.503906 37.261719 180.832031 37.261719 176.289062 L 37.261719 145.804688 C 37.261719 141.261719 40.929688 137.59375 45.472656 137.59375 L 88.277344 137.59375 C 92.820312 137.59375 96.488281 141.261719 96.488281 145.804688 Z M 96.488281 62.160156 C 96.488281 66.703125 92.820312 70.375 88.277344 70.375 L 45.472656 70.375 C 40.929688 70.375 37.261719 66.703125 37.261719 62.160156 L 37.261719 31.675781 C 37.261719 27.132812 40.929688 23.464844 45.472656 23.464844 L 88.277344 23.464844 C 92.820312 23.464844 96.488281 27.132812 96.488281 31.675781 Z M 718.695312 587.097656 C 718.695312 616.566406 694.824219 640.476562 665.320312 640.476562 L 162.363281 640.476562 C 132.898438 640.476562 108.988281 616.605469 108.988281 587.097656 L 108.988281 283.699219 C 108.988281 254.230469 132.859375 230.320312 162.363281 230.320312 L 665.320312 230.320312 C 694.789062 230.320312 718.695312 254.195312 718.695312 283.699219 Z M 791.367188 839.121094 C 791.367188 843.664062 787.699219 847.335938 783.15625 847.335938 L 740.351562 847.335938 C 735.8125 847.335938 732.140625 843.664062 732.140625 839.121094 L 732.140625 808.636719 C 732.140625 804.09375 735.8125 800.425781 740.351562 800.425781 L 783.15625 800.425781 C 787.699219 800.425781 791.367188 804.09375 791.367188 808.636719 Z M 791.367188 724.992188 C 791.367188 729.535156 787.699219 733.203125 783.15625 733.203125 L 740.351562 733.203125 C 735.8125 733.203125 732.140625 729.535156 732.140625 724.992188 L 732.140625 694.507812 C 732.140625 689.964844 735.8125 686.296875 740.351562 686.296875 L 783.15625 686.296875 C 787.699219 686.296875 791.367188 689.964844 791.367188 694.507812 Z M 791.367188 621.835938 C 791.367188 626.378906 787.699219 630.046875 783.15625 630.046875 L 740.351562 630.046875 C 735.8125 630.046875 732.140625 626.378906 732.140625 621.835938 L 732.140625 591.351562 C 732.140625 586.808594 735.8125 583.140625 740.351562 583.140625 L 783.15625 583.140625 C 787.699219 583.140625 791.367188 586.808594 791.367188 591.351562 Z M 791.367188 507.707031 C 791.367188 512.25 787.699219 515.917969 783.15625 515.917969 L 740.351562 515.917969 C 735.8125 515.917969 732.140625 512.25 732.140625 507.707031 L 732.140625 477.222656 C 732.140625 472.679688 735.8125 469.007812 740.351562 469.007812 L 783.15625 469.007812 C 787.699219 469.007812 791.367188 472.679688 791.367188 477.222656 Z M 791.367188 393.578125 C 791.367188 398.117188 787.699219 401.789062 783.15625 401.789062 L 740.351562 401.789062 C 735.8125 401.789062 732.140625 398.117188 732.140625 393.578125 L 732.140625 363.089844 C 732.140625 358.550781 735.8125 354.878906 740.351562 354.878906 L 783.15625 354.878906 C 787.699219 354.878906 791.367188 358.550781 791.367188 363.089844 Z M 791.367188 279.449219 C 791.367188 283.988281 787.699219 287.660156 783.15625 287.660156 L 740.351562 287.660156 C 735.8125 287.660156 732.140625 283.988281 732.140625 279.449219 L 732.140625 248.960938 C 732.140625 244.421875 735.8125 240.75 740.351562 240.75 L 783.15625 240.75 C 787.699219 240.75 791.367188 244.421875 791.367188 248.960938 Z M 791.367188 176.289062 C 791.367188 180.832031 787.699219 184.503906 783.15625 184.503906 L 740.351562 184.503906 C 735.8125 184.503906 732.140625 180.832031 732.140625 176.289062 L 732.140625 145.804688 C 732.140625 141.261719 735.8125 137.59375 740.351562 137.59375 L 783.15625 137.59375 C 787.699219 137.59375 791.367188 141.261719 791.367188 145.804688 Z M 783.191406 70.375 L 740.390625 70.375 C 735.847656 70.375 732.175781 66.703125 732.175781 62.160156 L 732.175781 31.675781 C 732.175781 27.132812 735.847656 23.464844 740.390625 23.464844 L 783.191406 23.464844 C 787.734375 23.464844 791.402344 27.132812 791.402344 31.675781 L 791.402344 62.160156 C 791.402344 66.703125 787.734375 70.375 783.191406 70.375 Z M 783.191406 70.375 " fill-opacity="1" fill-rule="nonzero"/></g></g><g transform="matrix(1, 0, 0, 1, 233, 182)"><g clip-path="url(#56e89f99fd)"><g fill="#f8ba24" fill-opacity="1"><g transform="translate(1.633782, 215.853177)"><g><path d="M 6.53125 -72.203125 C 6.53125 -86.347656 9.488281 -98.960938 15.40625 -110.046875 C 21.320312 -121.128906 29.71875 -129.765625 40.59375 -135.953125 C 51.46875 -142.140625 63.976562 -145.234375 78.125 -145.234375 C 96.070312 -145.234375 111.164062 -140.4375 123.40625 -130.84375 C 135.644531 -121.257812 143.535156 -108.242188 147.078125 -91.796875 L 104.03125 -91.796875 C 101.445312 -97.234375 97.875 -101.378906 93.3125 -104.234375 C 88.757812 -107.085938 83.492188 -108.515625 77.515625 -108.515625 C 68.265625 -108.515625 60.882812 -105.21875 55.375 -98.625 C 49.875 -92.03125 47.125 -83.222656 47.125 -72.203125 C 47.125 -61.054688 49.875 -52.1875 55.375 -45.59375 C 60.882812 -39 68.265625 -35.703125 77.515625 -35.703125 C 83.492188 -35.703125 88.757812 -37.128906 93.3125 -39.984375 C 97.875 -42.835938 101.445312 -46.984375 104.03125 -52.421875 L 147.078125 -52.421875 C 143.535156 -35.960938 135.644531 -22.941406 123.40625 -13.359375 C 111.164062 -3.773438 96.070312 1.015625 78.125 1.015625 C 63.976562 1.015625 51.46875 -2.078125 40.59375 -8.265625 C 29.71875 -14.453125 21.320312 -23.085938 15.40625 -34.171875 C 9.488281 -45.253906 6.53125 -57.929688 6.53125 -72.203125 Z M 6.53125 -72.203125 "/></g></g></g><g fill="#f8ba24" fill-opacity="1"><g transform="translate(156.248825, 215.853177)"><g><path d="M 51.40625 -143.8125 L 51.40625 0 L 11.421875 0 L 11.421875 -143.8125 Z M 51.40625 -143.8125 "/></g></g><g transform="translate(219.073939, 215.853177)"><g><path d="M 119.734375 -143.8125 L 119.734375 -111.984375 L 81.390625 -111.984375 L 81.390625 0 L 41.40625 0 L 41.40625 -111.984375 L 3.46875 -111.984375 L 3.46875 -143.8125 Z M 119.734375 -143.8125 "/></g></g></g></g></g><g transform="matrix(1, 0, 0, 1, 243, 333)"><g clip-path="url(#032b225375)"><g fill="#f8ba24" fill-opacity="1"><g transform="translate(3.798215, 272.921883)"><g><path d="M 10.0625 -97.015625 C 10.0625 -126.609375 16.082031 -149.914062 28.125 -166.9375 C 40.164062 -183.96875 59.085938 -192.484375 84.890625 -192.484375 C 110.691406 -192.484375 129.65625 -183.96875 141.78125 -166.9375 C 153.914062 -149.914062 159.984375 -126.609375 159.984375 -97.015625 C 159.984375 -67.085938 153.960938 -43.609375 141.921875 -26.578125 C 129.878906 -9.546875 110.867188 -1.03125 84.890625 -1.03125 C 58.910156 -1.03125 39.941406 -9.546875 27.984375 -26.578125 C 16.035156 -43.609375 10.0625 -67.085938 10.0625 -97.015625 Z M 109.921875 -97.015625 C 109.921875 -112.503906 108.285156 -124.332031 105.015625 -132.5 C 101.742188 -140.664062 95.035156 -144.75 84.890625 -144.75 C 74.742188 -144.75 68.035156 -140.664062 64.765625 -132.5 C 61.492188 -124.332031 59.859375 -112.503906 59.859375 -97.015625 C 59.859375 -81.191406 61.445312 -69.191406 64.625 -61.015625 C 67.8125 -52.847656 74.566406 -48.765625 84.890625 -48.765625 C 95.210938 -48.765625 101.960938 -52.847656 105.140625 -61.015625 C 108.328125 -69.191406 109.921875 -81.191406 109.921875 -97.015625 Z M 109.921875 -97.015625 "/></g></g></g><g fill="#f8ba24" fill-opacity="1"><g transform="translate(173.321763, 272.921883)"><g><path d="M 8.515625 -40.515625 C 25.203125 -53.585938 38.878906 -64.851562 49.546875 -74.3125 C 60.210938 -83.769531 69.15625 -93.53125 76.375 -103.59375 C 83.601562 -113.65625 87.21875 -123.25 87.21875 -132.375 C 87.21875 -137.875 85.96875 -142.171875 83.46875 -145.265625 C 80.976562 -148.367188 77.320312 -149.921875 72.5 -149.921875 C 67.519531 -149.921875 63.648438 -147.8125 60.890625 -143.59375 C 58.140625 -139.375 56.851562 -133.222656 57.03125 -125.140625 L 8 -125.140625 C 8.507812 -140.453125 11.859375 -153.140625 18.046875 -163.203125 C 24.242188 -173.265625 32.332031 -180.660156 42.3125 -185.390625 C 52.289062 -190.117188 63.390625 -192.484375 75.609375 -192.484375 C 96.765625 -192.484375 112.503906 -187.238281 122.828125 -176.75 C 133.148438 -166.257812 138.3125 -152.671875 138.3125 -135.984375 C 138.3125 -118.085938 132.332031 -101.3125 120.375 -85.65625 C 108.414062 -70.007812 93.492188 -55.992188 75.609375 -43.609375 L 140.109375 -43.609375 L 140.109375 -2.578125 L 8.515625 -2.578125 Z M 8.515625 -40.515625 "/></g></g></g></g></g></svg>